# xmcd CD database file
#
# Track frame offsets:
#	150
#	30962
#	49962
#	67797
#	82715
#	105282
#	128842
#	145400
#	164620
#	181752
#	199425
#	217400
#	236907
#
# Disc length: 3466 seconds
#
# Revision: 0
# Processed by: cddbd v1.5.2PL0 Copyright (c) Steve Scherf et al.
# Submitted via: CDex 1.70beta2
#
DISCID=b50d880d
DTITLE=Bei Xu - Moonlight
DYEAR=2007
DGENRE=Jazz
TTITLE0=Stardust
TTITLE1=Blue Moon - Sha Tan
TTITLE2=Feel Like Makin' Love
TTITLE3=On A Show Boat To China
TTITLE4=Don't Go To Strangers
TTITLE5=Clair De Luna
TTITLE6=Strawberry Fields Forever
TTITLE7=Crazy He Calls Me
TTITLE8=All Alone
TTITLE9=Girl Talk
TTITLE10=Don't Let Me Be Lonely Tonight
TTITLE11=Bye Bye Blackbird
TTITLE12=Moon Represents My Heart
EXTD=YEAR: 2007
EXTT0=
EXTT1=
EXTT2=
EXTT3=
EXTT4=
EXTT5=
EXTT6=
EXTT7=
EXTT8=
EXTT9=
EXTT10=
EXTT11=
EXTT12=
PLAYORDER=
